<?xml version="1.0"?><svg width="640" height="480" xmlns="http://www.w3.org/2000/svg">
 <g>
  <rect fill="#7f3600" fill-rule="evenodd" stroke="#000000" stroke-width="3.75" stroke-linecap="round" stroke-linejoin="round" stroke-miterlimit="4" y="45.540126" x="150.670473" width="319.77865" ry="40" rx="50" id="rect909" height="385.379887"/>
  <path fill="#cccccc" fill-rule="nonzero" stroke="#000000" stroke-width="3" id="path1534" d="m256.562012,78.272697l115.708984,-0.617599c0.563019,-12.407295 -20.597992,-9.0084 -25.244995,-16.057499c-3.768005,-5.7145 0.752014,-16.064999 0,-22.233398c-0.709015,-5.809799 -3.277008,-11.663401 -8.766998,-16.0714c-2.744995,-2.203901 -6.220001,-4.046501 -10.558014,-5.3414c-4.338989,-1.295 -9.540985,-2.042301 -15.738983,-2.055901c-6.195007,-0.0135 -11.466003,0.329 -15.475006,1.979099c-26.888,11.078501 -3.247986,25.367901 8.612,15.6548c10.444,-8.553299 23.347992,8.1064 12.743011,15.733501c-10.708008,7.700798 -22.821014,-8.195702 -13.067017,-15.246201c-22.936005,-7.1159 -18.628998,-17.847 -26.473999,4.7299c-0.95401,6.302498 3.660004,18.049999 0,24.7038c-3.585999,6.5215 -21.084991,2.519302 -21.738983,14.822296z"/>
  <title>Layer 1</title>
  <ellipse ry="7.000001" rx="8" id="svg_1" cy="33" cx="292" stroke-linecap="round" stroke-linejoin="round" stroke-width="3.75" stroke="#cccccc" fill="#cccccc"/>
  <ellipse id="svg_2" ry="6.500001" rx="6.5" cy="28.5" cx="295.5" stroke-linecap="round" stroke-linejoin="round" stroke-width="3.75" stroke="#cccccc" fill="#cccccc"/>
 </g>
</svg>